<?xml version="1.0" encoding="UTF-8"?>
<svg id="Layer_2" data-name="Layer 2" xmlns="http://www.w3.org/2000/svg" viewBox="0 0 132.82 151.26">
  <defs>
    <style>
      .cls-1 {
        fill: #fff;
      }
    </style>
  </defs>
  <g id="OBJECTS">
    <g>
      <path class="cls-1" d="M129.39,26.12l-1.66-10.28s-3.92,9.71-3.92,9.71c-14.99,38.49-49.79,31.64-80.56,47.8-15.51,7.93-26.56,21.07-34.38,36.17-.04-.77-.08-1.53-.1-2.26-.18-4.33,.01-8.75,.33-13.05,.25-1.53,.54-4.91,.93-6.39,6.41-36.63,41.53-36.97,60.69-63.67,2.52-3.45,4.66-7.17,6.44-11.04,7.01,13.35,7.93,29.43,4.87,44.12,5.95-16.67,6.83-36.72-2.89-52.2,0,0-3.12-5.02-3.12-5.02-2.49,7.17-5.44,14.64-10.01,20.7C45.96,47.58,11.99,46.37,4.29,86.73c-1.14,5.96-1.48,12.38-1.41,18.42,.09,8.35,1.44,18.51,2.19,26.9l4.52-10.2c1.2-2.62,2.68-6.33,4.07-8.85,4.27-8.57,9.89-16.77,16.79-23.38,29.81-28.76,73.2-15.04,94.54-52.96,2.08,16.09,2.96,32.53-1.3,48.24-14.26,50.96-79.79,27.76-107.73,57.26,25.08-22.31,74.22-7.07,100.98-33.96,20.26-20.7,17.02-55.81,12.45-82.08Z"/>
      <path class="cls-1" d="M28.55,70.22c-5.7,5.96-9.7,13.57-11.39,21.58,7.75-15.84,18.65-23.4,33.71-31.75,15.91-8.89,27.48-18.95,25.65-38.8-4.19,30.72-29.9,29.98-47.97,48.97Z"/>
      <path class="cls-1" d="M83.98,81.54c4.39-2.73,8.74-5.55,12.91-8.72-9.9,3.33-19.21,7.85-28.3,12.95-11.36,5.48-13.68,10.57-15.69,15.06-1.29,2.89-3.87,4.11-5.55,4.61-.53,.11-1.06,.23-1.59,.34,0,0,0,0,0,0h0c-2.94,.65-5.86,1.4-8.71,2.36-18.48,7.05-31.61,24.61-37.05,43.12,9.62-15.77,21.54-31.25,38.79-38.7,2.57-1.13,6.41-2.22,9.41-3.11,0,0,0,0,0,0,7.64-1.8,11.21,2.17,18.97,2.02,7.75-.15,16.56-5.81,16.56-5.81,0,0,0,0,0,0,8.29-4.55,15.46-11.02,21.38-18.36-6.3,3.97-12.21,8.17-18.5,11.98-1.55,.94-3.11,1.85-4.7,2.68-1.3,.64-2.35,.37-2.53,.08-.48-.78,.19-1.45,.77-1.85,10.09-6.93,17.17-10.96,22.3-17.5-8.22,4.04-15.76,8.96-23.41,13.76-1.57,.93-2.59,.91-3.19-.03-.45-.72,.5-1.77,1.62-2.32,0,0,0,0,.01-.01,9.16-5.72,16.66-10.08,21.67-16.61-8.27,4-16.47,9.14-24.59,14.01-1.49,.67-2.89-.05-3.16-.54-.45-.82,.2-1.86,.73-2.38,3.99-2.29,7.98-4.6,11.87-7.02Z"/>
    </g>
  </g>
</svg>