<?xml version="1.0" standalone="no"?>
<!DOCTYPE svg PUBLIC "-//W3C//DTD SVG 20010904//EN"
 "http://www.w3.org/TR/2001/REC-SVG-20010904/DTD/svg10.dtd">
<svg version="1.0" xmlns="http://www.w3.org/2000/svg"
 width="153.000000pt" height="153.000000pt" viewBox="0 0 153.000000 153.000000"
 preserveAspectRatio="xMidYMid meet">
<metadata>
Created by potrace 1.14, written by Peter Selinger 2001-2017
</metadata>
<g transform="translate(0.000000,153.000000) scale(0.100000,-0.100000)"
fill="#000000" stroke="none">
<path d="M841 1477 c-12 -27 -21 -52 -21 -56 0 -20 -87 -139 -133 -184 -29
-27 -122 -96 -209 -153 -103 -69 -174 -123 -208 -161 -98 -110 -142 -244 -141
-433 0 -98 2 -133 17 -249 l6 -44 41 94 c68 155 115 227 207 319 99 99 187
148 360 199 374 112 443 146 548 279 23 30 42 52 42 50 0 -1 4 -34 7 -73 20
-213 -5 -395 -72 -510 -34 -60 -107 -128 -173 -163 -56 -30 -192 -74 -262 -85
-41 -7 -245 -44 -275 -51 -110 -24 -229 -76 -285 -126 l-35 -30 45 29 c100 64
212 93 495 126 376 44 553 178 615 464 16 69 19 115 15 236 -2 83 -6 161 -9
175 -2 14 -7 43 -11 65 -3 22 -11 69 -17 105 -10 58 -12 62 -21 40 -40 -101
-102 -211 -138 -248 -93 -94 -161 -127 -419 -202 -91 -27 -196 -62 -234 -80
-139 -62 -271 -180 -349 -311 l-38 -64 2 86 c4 215 82 354 267 475 183 120
231 154 282 205 32 31 74 84 95 118 21 33 39 61 41 61 5 0 44 -126 50 -164 9
-63 10 -137 3 -196 -5 -30 -6 -56 -5 -58 8 -7 38 142 41 201 4 115 -17 211
-69 302 l-35 60 -20 -48z"/>
<path d="M859 1288 c-3 -58 -49 -146 -103 -200 -25 -26 -101 -80 -169 -119
-143 -85 -239 -174 -279 -259 -45 -97 -42 -107 11 -33 58 83 134 149 241 212
144 85 168 102 215 152 25 27 55 70 66 94 19 43 38 165 25 165 -3 0 -6 -6 -7
-12z"/>
<path d="M948 746 c-208 -93 -280 -144 -313 -216 -19 -43 -33 -51 -131 -79
-143 -42 -281 -164 -353 -313 -59 -124 -59 -143 0 -53 108 162 256 284 398
330 49 16 61 16 125 4 39 -7 91 -12 115 -11 49 2 157 52 224 103 39 30 137
126 137 134 0 2 -52 -30 -116 -71 -64 -41 -121 -74 -125 -74 -23 0 -2 21 69
68 76 51 156 122 136 122 -5 0 -61 -31 -124 -70 -63 -38 -118 -70 -122 -70
-23 0 1 22 73 69 75 49 149 111 149 125 0 6 -83 -38 -152 -81 -21 -13 -40 -23
-44 -23 -3 0 -17 -9 -31 -20 -14 -11 -29 -17 -34 -14 -20 12 -6 31 44 58 64
35 187 115 187 121 0 10 -17 4 -112 -39z"/>
</g>
</svg>
